<?xml version="1.0" encoding="utf-8"?>
<!-- Generator: Adobe Illustrator 19.1.0, SVG Export Plug-In . SVG Version: 6.00 Build 0)  -->
<svg version="1.1" id="Lager_1" xmlns="http://www.w3.org/2000/svg" xmlns:xlink="http://www.w3.org/1999/xlink" x="0px" y="0px"
	 viewBox="0 0 578.5 314.6" style="enable-background:new 0 0 578.5 314.6;" xml:space="preserve">
<style type="text/css">
	.st0{fill:#DF3418;}
	.st1{fill:#FDFBE5;}
	.st2{fill:none;}
	.st3{fill:#EEC541;}
	.st4{fill-rule:evenodd;clip-rule:evenodd;fill:none;}
	.st5{fill-rule:evenodd;clip-rule:evenodd;fill:#FDFBE5;}
	.st6{fill-rule:evenodd;clip-rule:evenodd;fill:#A2A731;}
	.st7{clip-path:url(#SVGID_17_);}
	.st8{fill:#EEDABF;}
	.st9{fill:#649FD1;}
	.st10{fill-rule:evenodd;clip-rule:evenodd;fill:#AEC43B;}
	.st11{fill:#518CC5;}
	.st12{fill-rule:evenodd;clip-rule:evenodd;fill:#5BB89B;}
	.st13{fill-rule:evenodd;clip-rule:evenodd;fill:#6C8C8F;}
	.st14{fill:#FFFFFF;}
</style>
<g>
	<path class="st0" d="M421.2,0c-65.6,0-121.8,40.1-145.4,97.2H0v129.5h280c25.6,52.1,79.2,87.9,141.2,87.9
		c86.9,0,157.3-70.4,157.3-157.3S508.1,0,421.2,0z"/>
	<g>
		<defs>
			<path id="SVGID_1_" d="M578.5,157.3c0,31.4-9.2,60.7-25.1,85.2l0,0v0c-1.7,2.6-3.4,5.1-5.2,7.5c-0.2,0.3-0.4,0.5-0.6,0.8
				c-0.5,0.6-0.9,1.2-1.4,1.9c-0.2,0.3-0.5,0.6-0.7,0.9c-0.5,0.6-0.9,1.2-1.4,1.8c-0.3,0.3-0.5,0.7-0.8,1c-0.5,0.6-0.9,1.1-1.4,1.7
				c-0.3,0.3-0.6,0.7-0.8,1c-0.5,0.6-0.9,1.1-1.4,1.7c-0.3,0.3-0.6,0.6-0.8,0.9c-0.5,0.6-1,1.1-1.5,1.7c0,0-0.1,0.1-0.1,0.1
				c-1.1,1.3-2.3,2.5-3.5,3.7c-0.3,0.3-0.7,0.7-1,1c-0.5,0.5-0.9,0.9-1.4,1.3c-0.4,0.4-0.8,0.8-1.2,1.1c-0.4,0.4-0.9,0.9-1.3,1.3
				c-0.4,0.4-0.8,0.8-1.2,1.2c-0.4,0.4-0.9,0.8-1.3,1.2c-0.4,0.4-0.9,0.8-1.3,1.2c-0.4,0.4-0.9,0.8-1.3,1.2
				c-0.5,0.4-0.9,0.8-1.4,1.2c-0.4,0.4-0.9,0.7-1.3,1.1c-0.5,0.4-1,0.8-1.6,1.3c-26.9,21.5-61,34.4-98.2,34.4
				c-13.7,0-26.9-1.7-39.5-5l-58-58.5v-0.2c-1.9-1.4-3.1-3.7-3.1-6.3V63c0-4.9,4.5-8.6,9.3-7.7l55.5,11.1l64.8-12.9l64.1,5.8
				c2.3,0.2,4.3,1.4,5.6,3.2l53.2,53.2C576.6,128.9,578.5,142.9,578.5,157.3L578.5,157.3z"/>
		</defs>
		<use xlink:href="#SVGID_1_"  style="overflow:visible;fill-rule:evenodd;clip-rule:evenodd;fill:#BD1622;"/>
		<clipPath id="SVGID_2_">
			<use xlink:href="#SVGID_1_"  style="overflow:visible;"/>
		</clipPath>
	</g>
	<path class="st1" d="M450.1,53.5l-64.8,12.9l-55.5-11.1c-4.8-1-9.3,2.7-9.3,7.7v181.6c0,4.9,4.5,8.7,9.3,7.7l55.5-11.1l64.8,12.9
		l64.1-5.8c4-0.4,7.1-3.8,7.1-7.8V67.1c0-4.1-3.1-7.4-7.1-7.8L450.1,53.5L450.1,53.5z"/>
	<g>
		<defs>
			<path id="SVGID_3_" d="M386.6,235.1c-0.4-0.1-0.8-0.1-1.2-0.1c-0.4,0-0.8,0-1.2,0.1l-55.5,11.1c-0.1,0-0.2,0-0.3,0
				c-0.7,0-1.5-0.6-1.5-1.6V63c0-1,0.8-1.5,1.5-1.5c0.1,0,0.2,0,0.3,0l55.5,11.1c0.4,0.1,0.8,0.1,1.2,0.1c0.4,0,0.8,0,1.2-0.1
				c0,0,62.1-12.4,63.9-12.8c1.8,0.2,63.2,5.7,63.2,5.7c0.8,0.1,1.4,0.7,1.4,1.5v173.5c0,0.8-0.6,1.5-1.4,1.5c0,0-61.4,5.6-63.2,5.7
				C448.7,247.5,386.6,235.1,386.6,235.1L386.6,235.1z"/>
		</defs>
		<use xlink:href="#SVGID_3_"  style="overflow:visible;fill:#FFE74F;"/>
		<clipPath id="SVGID_4_">
			<use xlink:href="#SVGID_3_"  style="overflow:visible;"/>
		</clipPath>
	</g>
	<path class="st2" d="M386.6,72.6c-0.4,0.1-0.8,0.1-1.2,0.1s-0.8,0-1.2-0.1l-17.6-3.5v169.5l17.6-3.5c0.4-0.1,0.8-0.1,1.2-0.1
		s0.8,0,1.2,0.1c0,0,59,11.8,63.6,12.7V59.9C445.6,60.8,386.6,72.6,386.6,72.6z"/>
	<path class="st3" d="M513.6,242.1c0.8-0.1,1.4-0.7,1.4-1.5V67.1c0-0.8-0.6-1.5-1.4-1.5c0,0-61.4-5.6-63.2-5.7c0,0-0.1,0-0.3,0.1
		v187.9c0.1,0,0.2,0,0.3,0.1C452.2,247.7,513.6,242.1,513.6,242.1z"/>
	<path class="st3" d="M328.6,61.5c-0.1,0-0.2,0-0.3,0c-0.7,0-1.5,0.6-1.5,1.5v181.6c0,0.9,0.8,1.6,1.5,1.6c0.1,0,0.2,0,0.3,0
		l37.9-7.6V69.1L328.6,61.5z"/>
	<g>
		<defs>
			<polygon id="SVGID_5_" points="450.2,93.2 450.1,93.2 385.3,116.4 324.3,130.9 324.3,112.6 385.3,98.1 450.2,74.9 450.2,93.2 			
				"/>
		</defs>
		<clipPath id="SVGID_6_">
			<use xlink:href="#SVGID_5_"  style="overflow:visible;"/>
		</clipPath>
	</g>
	<polygon class="st4" points="335,153.5 369.6,146 381,198.2 347,205.1 335,153.5 	"/>
	<g>
		<defs>
			<polygon id="SVGID_7_" points="351.8,63.7 369.1,60.1 397.9,207.1 380.6,210.6 351.8,63.7 			"/>
		</defs>
		<clipPath id="SVGID_8_">
			<use xlink:href="#SVGID_7_"  style="overflow:visible;"/>
		</clipPath>
	</g>
	<g>
		<defs>
			<path id="SVGID_9_" d="M472.5,250.9l-37-189.7l17.3-3.6l37,189.7L472.5,250.9L472.5,250.9z M379.7,207.6h17.9l7.7,39.7l-17.3,3.6
				L379.7,207.6L379.7,207.6z"/>
		</defs>
		<clipPath id="SVGID_10_">
			<use xlink:href="#SVGID_9_"  style="overflow:visible;"/>
		</clipPath>
	</g>
	<g>
		<defs>
			<polygon id="SVGID_11_" points="324.3,205.1 385.3,190.6 450.3,167.4 518.8,179 518.8,208 450.1,196.4 385.3,219.6 324.3,234.1 
				324.3,205.1 			"/>
		</defs>
		<clipPath id="SVGID_12_">
			<use xlink:href="#SVGID_11_"  style="overflow:visible;"/>
		</clipPath>
	</g>
	<g>
		<defs>
			<polygon id="SVGID_13_" points="366.5,62.9 366.5,246.7 304.8,266.2 296,257.3 296,52.2 366.5,62.9 			"/>
		</defs>
		<clipPath id="SVGID_14_">
			<use xlink:href="#SVGID_13_"  style="overflow:visible;"/>
		</clipPath>
	</g>
	<polygon class="st5" points="379.7,207.6 397.7,207.6 404.7,243.6 386,239.7 379.7,207.6 	"/>
	<polygon class="st4" points="366.5,62.9 366.5,246.7 304.8,266.2 296,257.3 296,52.2 366.5,62.9 	"/>
	<polygon class="st6" points="335,153.5 369.6,146 381,198.2 347,205.1 335,153.5 	"/>
	<polygon class="st4" points="366.5,62.9 366.5,246.7 304.8,266.2 296,257.3 296,52.2 366.5,62.9 	"/>
	<polygon class="st4" points="366.5,246.7 304.8,266.2 296,257.3 296,52.2 366.5,62.9 	"/>
	<polygon class="st4" points="526.3,244.1 526.3,60.4 464.6,40.9 450.2,52.2 450.2,257.3 526.3,244.1 	"/>
	<g>
		<defs>
			<polygon id="SVGID_15_" points="515,113.8 459,127.1 459,108.8 515,95.5 			"/>
		</defs>
		<defs>
			<polygon id="SVGID_16_" points="526.3,244.1 526.3,60.4 464.6,40.9 450.2,52.2 450.2,257.3 526.3,244.1 			"/>
		</defs>
		<use xlink:href="#SVGID_15_"  style="overflow:visible;fill-rule:evenodd;clip-rule:evenodd;fill:#EEDABF;"/>
		<clipPath id="SVGID_17_">
			<use xlink:href="#SVGID_15_"  style="overflow:visible;"/>
		</clipPath>
		<clipPath id="SVGID_18_" class="st7">
			<use xlink:href="#SVGID_16_"  style="overflow:visible;"/>
		</clipPath>
	</g>
	<polygon class="st2" points="385.3,116.4 380.3,117.6 394,187.5 450.3,167.4 456.4,168.4 442.3,96 	"/>
	<path class="st2" d="M385.3,98.1l53.6-19.2l-3.2-16.2c-18.9,3.8-49.2,9.8-49.2,9.8c-0.4,0.1-0.8,0.1-1.2,0.1s-0.8,0-1.2-0.1L371,70
		l5.9,30.1L385.3,98.1z"/>
	<path class="st2" d="M489.1,244.3c13.1-1.2,24.5-2.2,24.5-2.2c0.8-0.1,1.4-0.7,1.4-1.5v-33.2l-34.2-5.8L489.1,244.3z"/>
	<polygon class="st8" points="359.7,104.2 326.8,112 326.8,130.3 363.2,121.7 	"/>
	<polygon class="st9" points="518.8,179 515,178.3 515,207.4 518.8,208 	"/>
	<polygon class="st10" points="366.4,201.2 381,198.2 369.6,146 366.4,146.7 	"/>
	<polygon class="st9" points="474.9,171.6 480.8,201.6 515,207.4 515,178.3 	"/>
	<polygon class="st11" points="406.8,182.9 394,187.5 380.3,117.6 376.9,100.1 371,70 352.3,66.2 359.7,104.2 363.2,121.7 
		377.1,192.6 326.8,204.5 326.8,233.5 385.3,219.6 406.8,211.9 	"/>
	<polygon class="st9" points="394,187.5 380.3,117.6 376.9,100.1 371,70 366.4,69 366.4,138 377.1,192.6 366.4,195.1 366.4,224.1 
		385.3,219.6 406.8,211.9 406.8,182.9 	"/>
	<path class="st8" d="M472.5,250.9l17.3-3.6l-0.6-3c-5.8,0.5-12,1.1-17.6,1.6L472.5,250.9z"/>
	<path class="st8" d="M462.2,198.4l9.3,47.5c5.7-0.5,11.8-1.1,17.6-1.6l-8.3-42.8L462.2,198.4z"/>
	<path class="st8" d="M450.2,74.9v18.3l0,0l-7.9,2.8l14.1,72.4l18.6,3.1L453.2,60.1c-1.6-0.1-2.6-0.2-2.8-0.3
		c-0.5,0.1-6.5,1.3-14.6,2.9l3.2,16.2L450.2,74.9z"/>
	<polygon class="st1" points="454.3,157.6 456.4,168.4 474.9,171.6 472.2,157.6 	"/>
	<path class="st1" d="M450.1,74.9v-15c-1.4,0.3-7,1.4-14.3,2.9l3.2,16.2l-53.6,19.2l-8.5,2l3.4,17.5l5-1.2l57-20.4l0,0l7.8,40.1
		V93.2l0,0l0,0L450.1,74.9L450.1,74.9z"/>
	<polygon class="st8" points="462.2,198.4 480.8,201.6 474.9,171.6 456.4,168.4 	"/>
	<g>
		<defs>
			<polygon id="SVGID_19_" points="525.5,273 510.3,257.8 532.5,235.6 546.6,249.7 525.5,273 			"/>
		</defs>
		<use xlink:href="#SVGID_19_"  style="overflow:visible;fill-rule:evenodd;clip-rule:evenodd;fill:#D7EDEF;"/>
		<clipPath id="SVGID_20_">
			<use xlink:href="#SVGID_19_"  style="overflow:visible;"/>
		</clipPath>
	</g>
	<g>
		<defs>
			<path id="SVGID_21_" d="M518.2,281.2l-3.9-3.9c-2.8-2.8-3.3-7-1-9.3l28.6-28.6c2.3-2.3,6.5-1.8,9.3,1l2.2,2.2
				C543.9,257.3,532,270.4,518.2,281.2L518.2,281.2z"/>
		</defs>
		<use xlink:href="#SVGID_21_"  style="overflow:visible;fill-rule:evenodd;clip-rule:evenodd;fill:#E95C59;"/>
		<clipPath id="SVGID_22_">
			<use xlink:href="#SVGID_21_"  style="overflow:visible;"/>
		</clipPath>
	</g>
	<g>
		<defs>
			<path id="SVGID_23_" d="M546.5,193.9c0,42.7-34.7,77.4-77.4,77.4s-77.4-34.6-77.4-77.4c0-42.7,34.7-77.4,77.4-77.4
				S546.5,151.2,546.5,193.9L546.5,193.9z"/>
		</defs>
		<use xlink:href="#SVGID_23_"  style="overflow:visible;fill:#D7EDEF;"/>
		<clipPath id="SVGID_24_">
			<use xlink:href="#SVGID_23_"  style="overflow:visible;"/>
		</clipPath>
	</g>
	<g>
		<defs>
			<path id="SVGID_25_" d="M529.8,194.4c0,33.3-27,60.2-60.3,60.2s-60.3-27-60.3-60.2s27-60.2,60.3-60.2S529.8,161.1,529.8,194.4
				L529.8,194.4z"/>
		</defs>
		<clipPath id="SVGID_26_">
			<use xlink:href="#SVGID_25_"  style="overflow:visible;"/>
		</clipPath>
	</g>
	<circle class="st12" cx="469.7" cy="193.9" r="57"/>
	<path class="st13" d="M469.5,254.6c-33.3,0-60.3-27-60.3-60.2s27-60.2,60.3-60.2s60.3,27,60.3,60.2S502.8,254.6,469.5,254.6
		L469.5,254.6z M469.7,139.1c-30.6,0-55.4,24.6-55.4,55.1s24.8,55.1,55.4,55.1s55.4-24.6,55.4-55.1S500.3,139.1,469.7,139.1
		L469.7,139.1z"/>
	<g>
		<defs>
			<path id="SVGID_27_" d="M469.2,244.7c-6.7,0-13.1-1.3-19-3.7v-93.4c5.9-2.4,12.3-3.7,19-3.7c27.9,0,50.4,22.6,50.4,50.4
				S497,244.7,469.2,244.7L469.2,244.7z"/>
		</defs>
		<use xlink:href="#SVGID_27_"  style="overflow:visible;fill-rule:evenodd;clip-rule:evenodd;fill:#EEC541;"/>
		<clipPath id="SVGID_28_">
			<use xlink:href="#SVGID_27_"  style="overflow:visible;"/>
		</clipPath>
	</g>
	<g>
		<defs>
			<path id="SVGID_29_" d="M450.2,241c-18.4-7.5-31.4-25.6-31.4-46.7s13-39.2,31.4-46.7V241L450.2,241z"/>
		</defs>
		<use xlink:href="#SVGID_29_"  style="overflow:visible;fill-rule:evenodd;clip-rule:evenodd;fill:#FFE74F;"/>
		<clipPath id="SVGID_30_">
			<use xlink:href="#SVGID_29_"  style="overflow:visible;"/>
		</clipPath>
	</g>
	<g>
		<defs>
			<path id="SVGID_31_" d="M448.9,168.6l68.7,11.7c1.3,4.4,2,9.1,2,14c0,8.4-2.1,16.3-5.7,23.2l-65-11.2l-26,7.9
				c-2.7-6.1-4.1-12.9-4.1-20c0-6.4,1.2-12.5,3.4-18.1L448.9,168.6L448.9,168.6z"/>
		</defs>
		<use xlink:href="#SVGID_31_"  style="overflow:visible;fill-rule:evenodd;clip-rule:evenodd;fill:#649FD1;"/>
		<clipPath id="SVGID_32_">
			<use xlink:href="#SVGID_31_"  style="overflow:visible;"/>
		</clipPath>
	</g>
	<g>
		<defs>
			<path id="SVGID_33_" d="M497.6,236c-7.4,5.1-16.2,8.2-25.7,8.7l-19.7-97.8c5.3-1.9,11-2.9,16.9-2.9c2.8,0,5.5,0.2,8.2,0.7
				L497.6,236L497.6,236z"/>
		</defs>
		<use xlink:href="#SVGID_33_"  style="overflow:visible;fill-rule:evenodd;clip-rule:evenodd;fill:#EEDABF;"/>
		<clipPath id="SVGID_34_">
			<use xlink:href="#SVGID_33_"  style="overflow:visible;"/>
		</clipPath>
	</g>
	<g>
		<defs>
			<path id="SVGID_35_" d="M467.2,161.7c13.9,0,25.2,11.3,25.2,25.1c0,13.9-25.2,43.4-25.2,43.4S442,200.7,442,186.9
				C442,173,453.3,161.7,467.2,161.7L467.2,161.7z"/>
		</defs>
		<use xlink:href="#SVGID_35_"  style="overflow:visible;fill-rule:evenodd;clip-rule:evenodd;fill:#E85651;"/>
		<clipPath id="SVGID_36_">
			<use xlink:href="#SVGID_35_"  style="overflow:visible;"/>
		</clipPath>
	</g>
	<g>
		<defs>
			<path id="SVGID_37_" d="M467.2,173c7.6,0,13.8,6.2,13.8,13.8c0,7.6-6.2,13.8-13.8,13.8c-7.6,0-13.8-6.2-13.8-13.8
				C453.3,179.2,459.5,173,467.2,173L467.2,173z"/>
		</defs>
		<use xlink:href="#SVGID_37_"  style="overflow:visible;fill-rule:evenodd;clip-rule:evenodd;fill:#C43C38;"/>
		<clipPath id="SVGID_38_">
			<use xlink:href="#SVGID_37_"  style="overflow:visible;"/>
		</clipPath>
	</g>
	<g>
		<g>
			<path class="st14" d="M115.8,182.7c-5.4,0-9.7-1.8-13-5.3c-3.3-3.6-4.9-8.2-4.9-13.9c0-6.1,1.7-11,5-14.7
				c3.3-3.7,7.8-5.5,13.5-5.5c5.3,0,9.5,1.8,12.7,5.3c3.2,3.5,4.8,8.2,4.8,13.9c0,6.2-1.6,11.1-4.9,14.8
				C125.7,180.8,121.3,182.7,115.8,182.7z M116.1,147.3c-4,0-7.3,1.4-9.8,4.3c-2.5,2.9-3.8,6.7-3.8,11.4c0,4.7,1.2,8.5,3.7,11.3
				c2.4,2.9,5.6,4.3,9.5,4.3c4.2,0,7.5-1.4,9.9-4.1c2.4-2.7,3.6-6.6,3.6-11.5c0-5-1.2-8.9-3.5-11.7
				C123.4,148.6,120.2,147.3,116.1,147.3z"/>
			<path class="st14" d="M164.9,144.8c1.1,0,2,0.2,2.9,0.7v-3.9c-0.8-0.3-1.8-0.5-3.2-0.5c-2.5,0-4.5,0.8-6.2,2.5
				c-1.7,1.7-2.5,3.9-2.5,6.8v4.4h-4.5h-0.1h-6.3v-4.2c0-3.8,1.5-5.8,4.6-5.8c1.1,0,2,0.2,2.9,0.7v-3.9c-0.8-0.3-1.8-0.5-3.2-0.5
				c-2.5,0-4.5,0.8-6.2,2.5s-2.5,3.9-2.5,6.8v4.4h-4.7v3.7h4.7V182h4.3v-23.5h6.3h0.1h4.5V182h4.3v-23.5h6.4v-3.7h-6.4v-4.2
				C160.3,146.7,161.9,144.8,164.9,144.8z"/>
			<g>
				<path class="st14" d="M173,147.9c-0.8,0-1.4-0.3-2-0.8c-0.6-0.5-0.8-1.2-0.8-2c0-0.8,0.3-1.5,0.8-2c0.6-0.5,1.2-0.8,2-0.8
					c0.8,0,1.5,0.3,2,0.8c0.6,0.5,0.8,1.2,0.8,2c0,0.8-0.3,1.4-0.8,2C174.5,147.6,173.8,147.9,173,147.9z"/>
				<rect x="170.8" y="154.8" class="st14" width="4.4" height="27.2"/>
			</g>
			<g>
				<path class="st14" d="M199.6,180.8c-2.1,1.3-4.6,1.9-7.4,1.9c-3.9,0-7-1.3-9.4-3.8c-2.4-2.5-3.6-5.8-3.6-9.8
					c0-4.5,1.3-8.1,3.9-10.8c2.6-2.7,6-4.1,10.3-4.1c2.4,0,4.5,0.4,6.3,1.3v4.5c-2-1.4-4.2-2.1-6.5-2.1c-2.8,0-5.1,1-6.8,3
					c-1.8,2-2.7,4.6-2.7,7.9c0,3.2,0.8,5.7,2.5,7.6c1.7,1.8,3.9,2.8,6.7,2.8c2.4,0,4.6-0.8,6.7-2.4V180.8z"/>
			</g>
			<path class="st14" d="M226.3,169.5H207c0.1,3,0.9,5.4,2.4,7c1.6,1.6,3.7,2.5,6.4,2.5c3.1,0,5.9-1,8.5-3v4.1
				c-2.4,1.7-5.6,2.6-9.5,2.6c-3.8,0-6.9-1.2-9.1-3.7c-2.2-2.5-3.3-6-3.3-10.4c0-4.2,1.2-7.7,3.6-10.4c2.4-2.7,5.4-4,9-4
				s6.3,1.2,8.3,3.5c1.9,2.3,2.9,5.5,2.9,9.6V169.5z M221.8,165.8c0-2.5-0.6-4.5-1.8-5.9c-1.2-1.4-2.9-2.1-5-2.1
				c-2.1,0-3.8,0.7-5.2,2.2c-1.4,1.5-2.3,3.4-2.7,5.8H221.8z"/>
		</g>
		<polygon class="st14" points="25.9,182.2 60.4,194.5 79.5,188.3 79.5,136.9 60.4,130.4 25.9,143.7 		"/>
	</g>
	<polygon class="st0" points="50,178.7 50,147.6 34.6,151.1 34.6,172 26.1,175.5 	"/>
</g>
</svg>
