<?xml version="1.0" encoding="utf-8"?>
<!-- Generator: Adobe Illustrator 19.1.0, SVG Export Plug-In . SVG Version: 6.00 Build 0)  -->
<svg version="1.1" id="Lager_1" xmlns="http://www.w3.org/2000/svg" xmlns:xlink="http://www.w3.org/1999/xlink" x="0px" y="0px"
	 viewBox="0 0 422.1 311.9" style="enable-background:new 0 0 422.1 311.9;" xml:space="preserve">
<style type="text/css">
	.st0{fill:#112F3E;}
	.st1{fill:#D8D9D8;}
	.st2{fill:#F3F2F2;}
	.st3{fill:#C6C5C6;}
	.st4{fill:#AAABB0;}
	.st5{fill:#D24519;}
	.st6{fill:#F5A318;}
	.st7{opacity:0.62;}
	.st8{fill:#207EBD;}
	.st9{fill:#E85519;}
	.st10{fill:#056DB0;}
</style>
<g>
	<g>
		<g>
			<g>
				<g>
					<g>
						<path class="st0" d="M422.1,11.3c0-6.3-5.1-11.3-11.4-11.3H11.4C5.1,0,0,5.1,0,11.3v221.2h422.1V11.3z"/>
					</g>
				</g>
			</g>
			<g>
				<g>
					<path class="st1" d="M0,232.5v32.8c0,6.3,5.1,11.3,11.4,11.3h399.4c6.3,0,11.4-5.1,11.4-11.3v-32.8H0z"/>
				</g>
			</g>
			<g>
				<g>
					<rect x="11.2" y="11.5" class="st2" width="399.8" height="209.8"/>
				</g>
			</g>
			<g>
				<g>
					<rect x="169.1" y="276.8" class="st3" width="84" height="25.7"/>
				</g>
			</g>
			<g>
				<g>
					<rect x="137" y="300.9" class="st1" width="148.1" height="11"/>
				</g>
			</g>
			<g>
				<g>
					<rect x="169.1" y="276.7" class="st4" width="84" height="4.9"/>
				</g>
			</g>
		</g>
		<rect x="36.7" y="120.1" class="st5" width="26.3" height="101.2"/>
		<rect x="367.4" y="120.1" class="st5" width="26.3" height="101.2"/>
		<rect x="258.8" y="144.2" class="st5" width="26.3" height="77.2"/>
		<rect x="87.1" y="93.1" class="st5" width="26.3" height="128.3"/>
		<rect x="315.5" y="78" class="st5" width="26.3" height="143.3"/>
		<rect x="142.8" y="120.1" class="st5" width="26.3" height="101.2"/>
		<rect x="202.9" y="93.1" class="st5" width="26.3" height="128.3"/>
		<rect x="202.9" y="63" class="st6" width="26.3" height="30.1"/>
		<rect x="315.5" y="48" class="st6" width="26.3" height="30.1"/>
		<g class="st7">
			<path class="st8" d="M270.8,168c-0.1,0-0.3,0-0.4,0c-2.2-0.1-4.3-1.3-5.5-3.2l-53.7-81.4L129,143.9c-2.2,1.6-5.1,1.8-7.6,0.6
				l-47-25L27.2,166c-2.8,2.8-7.3,2.7-10.1-0.1c-2.8-2.8-2.7-7.3,0.1-10.1l50.9-50.1c2.2-2.2,5.6-2.7,8.3-1.2l47.7,25.3l84.6-62.3
				c1.6-1.2,3.6-1.6,5.5-1.3c1.9,0.3,3.6,1.5,4.7,3.1l52.6,79.6l50.8-60.5c2.4-2.9,6.7-3.4,9.7-1.1l70.9,52.5
				c3.2,2.3,3.8,6.8,1.5,10c-2.3,3.2-6.8,3.8-10,1.5l-65.5-48.5l-52.6,62.7C274.9,167.1,272.9,168,270.8,168z"/>
		</g>
	</g>
	<g>
		<ellipse class="st9" cx="47.2" cy="75.5" rx="5.7" ry="1.4"/>
		<path class="st10" d="M59.1,74.2c0.9,0.5,1.4,1.1,1.4,1.7c0,2.1-5.9,3.9-13.3,3.9c-7.3,0-13.3-1.7-13.3-3.9c0-0.6,0.5-1.2,1.4-1.8
			c-3.7,0.9-6.1,2.3-6.1,3.9c0,2.9,8,5.2,17.9,5.2c9.9,0,17.9-2.3,17.9-5.2C65.1,76.5,62.8,75.1,59.1,74.2z"/>
		<path class="st9" d="M69.4,43.5c0-5.1-1.7-9.8-4.6-13.6c1.7,2.6,2.7,5.7,2.7,9.1c0,4.3-1.7,8.3-4.4,11.3
			c-0.5,0.5-12.3,12.3-12.3,12.3S38.8,50.8,38.4,50.4c-2.7-3-4.4-6.9-4.4-11.3c0-9.2,7.5-16.7,16.7-16.7c1.9,0,3.7,0.3,5.4,0.9
			c-2.7-1.2-5.7-1.8-8.8-1.8c-12.2,0-22.1,9.9-22.1,22.1c0,6.5,2.8,12.4,7.3,16.5l14.8,14.8l15.5-15.5L63,59l0.1-0.1l0,0
			C67,54.9,69.4,49.5,69.4,43.5z"/>
		<path class="st10" d="M61.8,42.1c-0.3,0.3-8.1,8.2-8.1,8.2s-7.8-7.8-8.1-8.2c-1.8-2-2.9-4.6-2.9-7.6c0-6.2,4.9-11.2,11-11.2
			c6.1,0,11,5,11,11.2C64.7,37.5,63.6,40.1,61.8,42.1z"/>
	</g>
	<g>
		<path class="st10" d="M398.9,38c-0.8-0.2-1.5-0.2-2.2-0.1c-1.2-3.1-3.5-5.5-6.5-6.9c0.2-1.4,0-2.9-4-5.1c-0.2-0.1-0.4-0.2-0.6-0.2
			c-1.1,0-2.1,0.4-2.9,1v3.2v2.2v1.9c0.8,0.6,1.8,1,2.9,1c1.6,0,3-0.8,3.9-2c2.4,1.2,4.3,3.3,5.3,5.8c-1.1,0.9-1.7,2.2-1.7,3.6
			c0,1.5,0.7,2.8,1.8,3.7c-0.9,2.6-2.9,4.7-5.3,5.9c-0.8-1.2-2.3-2-3.9-2c-1.1,0-2.1,0.4-2.9,1V53v2.2v3.2c0.8,0.6,1.8,1,2.9,1
			c2.6,0,4.7-2.1,4.7-4.7c0-0.2,0-0.4,0-0.6c3-1.4,5.3-4,6.5-7.1c0.3,0.1,0.6,0.1,0.9,0.1c2.9,0,5.2-2.6,4.6-5.6
			C401.9,39.9,400.6,38.5,398.9,38z"/>
		<path class="st10" d="M352.9,24.4l-0.1,36.5l27.3,5V19.4L352.9,24.4z M368.2,51.8c-2.2,1.6-5.1,0.9-7.5,0c0-1.4-0.1-2.7-0.1-4.1
			c1.5,1.1,3.7,2.7,5.5,1.2c1.4-2.3-1.3-3.8-2.9-4.9c-3.4-2-3.5-7.6-0.2-9.8c1.9-1.2,4.3-0.8,6.4-0.5c0,1.3,0.1,2.6,0.1,3.9
			c-1.8-0.6-4-1.7-5.5,0.1c-1,2.6,2.2,3.6,3.7,5C370.8,44.6,371,49.6,368.2,51.8z"/>
	</g>
</g>
</svg>
