<?xml version="1.0" encoding="utf-8"?>
<!-- Generator: Adobe Illustrator 19.1.0, SVG Export Plug-In . SVG Version: 6.00 Build 0)  -->
<svg version="1.1" id="Lager_1" xmlns="http://www.w3.org/2000/svg" xmlns:xlink="http://www.w3.org/1999/xlink" x="0px" y="0px"
	 viewBox="0 0 431.1 326.7" style="enable-background:new 0 0 431.1 326.7;" xml:space="preserve">
<style type="text/css">
	.st0{clip-path:url(#SVGID_2_);}
	.st1{fill:#E85519;}
	.st2{fill:#DF3418;}
	.st3{fill:#21679E;}
	.st4{fill:#FFFFFF;}
	.st5{opacity:0.1;}
	.st6{fill:#5384BF;}
	.st7{fill:#2971B2;}
	.st8{clip-path:url(#SVGID_4_);}
	.st9{fill:#CAD4DF;}
	.st10{fill:#7893AF;}
	.st11{fill:#657B8E;}
	.st12{fill:#EDB9A2;}
	.st13{fill:#FBD5BC;}
	.st14{fill:#866855;}
	.st15{fill:#F3F2F2;}
	.st16{fill:#E74D6A;}
	.st17{fill:#E2231A;}
	.st18{opacity:0.3;fill:#FFFFFF;}
	.st19{clip-path:url(#SVGID_6_);}
	.st20{fill:#F5AB76;}
	.st21{fill:#D3946A;}
	.st22{fill:#F8C19B;}
	.st23{fill:#47718C;}
	.st24{opacity:5.000000e-02;}
</style>
<g>
	<defs>
		<path id="SVGID_1_" d="M419.7,326.7H11.3c-6.2,0-11.3-5.1-11.3-11.3v-304C0,5.1,5.1,0,11.3,0h408.4c6.2,0,11.3,5.1,11.3,11.3v304
			C431.1,321.6,426,326.7,419.7,326.7z"/>
	</defs>
	<clipPath id="SVGID_2_">
		<use xlink:href="#SVGID_1_"  style="overflow:visible;"/>
	</clipPath>
	<g class="st0">
		<rect x="-0.1" y="-29.3" class="st1" width="433" height="432"/>
		<g>
			<polygon class="st2" points="51.2,258.6 195.3,403 432.8,403 432.7,80.6 381.7,29.4 			"/>
			<g>
				<path class="st3" d="M382.9,255.9c0,3.3-3,5.8-6,5.8H56.2c-3,0-6.4-2.5-6.4-5.8V37.2c0-3.3,3.4-5.6,6.4-5.6h320.6
					c3,0,6,2.3,6,5.6V255.9z"/>
				<path class="st4" d="M377.1,250.5c0,3.2-2.1,5.8-5,5.8H60.9c-2.9,0-5.5-2.6-5.5-5.8V38.3c0-3.2,2.6-5.5,5.5-5.5h311.2
					c2.9,0,5,2.3,5,5.5V250.5z"/>
				<path class="st5" d="M382,64.3V39.7c0-3.3-2.2-5.7-5.1-5.7H56.2c-3,0-5.7,2.4-5.7,5.7v24.6H382z"/>
				<path class="st6" d="M382,59.7V35.1c0-3.3-2.2-5.7-5.1-5.7H56.2c-3,0-5.7,2.4-5.7,5.7v24.6H382z"/>
				<g>
					<g>
						<path class="st7" d="M74.6,52.1c-0.8,0.8-2,0.8-2.8,0L61.6,41.9c-0.8-0.8-0.8-2,0-2.8l0.2-0.2c0.8-0.8,2-0.8,2.8,0l10.2,10.2
							c0.8,0.8,0.8,2,0,2.8L74.6,52.1z"/>
						<path class="st7" d="M61.6,51.9c-0.8-0.8-0.8-2,0-2.8L71.8,39c0.8-0.8,2-0.8,2.8,0l0.2,0.2c0.8,0.8,0.8,2,0,2.8L64.5,52.1
							c-0.8,0.8-2,0.8-2.8,0L61.6,51.9z"/>
					</g>
				</g>
				<path class="st7" d="M95.4,48.5c0,2-1.6,3.6-3.6,3.6H86c-2,0-3.6-1.6-3.6-3.6v-5.8c0-2,1.6-3.6,3.6-3.6h5.8c2,0,3.6,1.6,3.6,3.6
					V48.5z"/>
				<path class="st7" d="M115.4,49.2c0,1-0.8,1.8-1.8,1.8h-9.4c-1,0-1.8-0.8-1.8-1.8V49c0-1,0.8-1.8,1.8-1.8h9.4
					c1,0,1.8,0.8,1.8,1.8V49.2z"/>
				<g>
					<defs>
						<path id="SVGID_3_" d="M376.9,250.5c0,3.2-1.8,6.1-4.7,6.1H60.9c-2.9,0-5.1-2.9-5.1-6.1V38.3c0-3.2,2.2-5.6,5.1-5.6h311.2
							c2.9,0,4.7,2.4,4.7,5.6V250.5z"/>
					</defs>
					<clipPath id="SVGID_4_">
						<use xlink:href="#SVGID_3_"  style="overflow:visible;"/>
					</clipPath>
					<g class="st8">
						<path class="st9" d="M215.3,272.6h44.9c9.7,0,17.6-7.8,17.6-17.6c0,0,3.2-16.7,0-35.7c-1.6-9.6-8.9-17.2-17.6-20.3
							c-10.7-3.8-33.8-5.6-45-5.6h-0.7c-11.2,0-34.3,1.8-45,5.6c-8.7,3.1-16,10.7-17.6,20.3c-3.2,18.9,0,35.6,0,35.6
							c0,9.7,7.9,17.6,17.6,17.6h44.9H215.3z"/>
						<g>
							<path class="st10" d="M186.9,195.5c-6.8,0.9-13.1,2.1-17.4,3.6c-8.7,3.1-16,10.7-17.6,20.3c-3.2,18.9,0,35.6,0,35.6
								c0,9.7,7.9,17.6,17.6,17.6h34.6L186.9,195.5z"/>
							<path class="st10" d="M277.9,219.4c-1.6-9.6-8.9-17.2-17.6-20.3c-4.3-1.5-10.7-2.7-17.4-3.6l-18.3,77.1h35.7
								c9.7,0,17.6-7.8,17.6-17.6C277.9,255,281.1,238.3,277.9,219.4z"/>
						</g>
						<polygon class="st11" points="187,195.5 171.6,215.3 186.9,225.2 177.3,245.1 195,272.6 204.3,272.6 						"/>
						<polygon class="st11" points="242.4,195.5 257.8,215.3 242.4,225.2 252,245.1 234.4,272.6 225.1,272.6 						"/>
						<rect x="193.9" y="166.7" class="st12" width="40" height="31"/>
						<g>
							<path class="st13" d="M254.4,148.7c0,21.7-17.8,39.2-39.8,39.2s-39.8-17.6-39.8-39.2v-21.6c0-21.7,17.8-39.2,39.8-39.2
								s39.8,17.6,39.8,39.2L254.4,148.7z"/>
							<path class="st14" d="M175.3,129.9c22.9,7.3,47.4-5,54.6-27.5l3.8-12.4c-5.7-3.1-12.1-4.9-19.1-4.9
								c-22,0-39.8,17.6-39.8,39.2v5.3C174.9,129.8,175.1,129.9,175.3,129.9z"/>
							<path class="st14" d="M254.2,124.4c0-16.5-10.4-30.6-25-36.4c-1.8,17.3,8.3,34.3,25.1,40.9L254.2,124.4z"/>
						</g>
						<ellipse class="st12" cx="214.4" cy="197.5" rx="19.3" ry="3.3"/>
						<path class="st11" d="M223,207.8c0,3.6-2.9,6.5-6.5,6.5h-3.8c-3.6,0-6.5-2.9-6.5-6.5v0c0-3.6,2.9-6.5,6.5-6.5h3.8
							C220.1,201.3,223,204.2,223,207.8L223,207.8z"/>
						<polygon class="st11" points="224.6,278.7 204.3,278.7 210.1,211.7 219.7,211.7 						"/>
					</g>
				</g>
			</g>
			<g>
				<path class="st5" d="M372.3,242.7c0,5.9-3.6,10.8-8,10.8H66c-4.4,0-8-4.8-8-10.8l0,0c0-5.9,3.6-10.8,8-10.8h298.3
					C368.7,231.9,372.3,236.7,372.3,242.7L372.3,242.7z"/>
				<path class="st15" d="M369.5,242.7c0,4.7-3.5,8.6-7.8,8.6h-293c-4.3,0-7.8-3.8-7.8-8.6l0,0c0-4.7,3.5-8.6,7.8-8.6h293
					C366,234.1,369.5,237.9,369.5,242.7L369.5,242.7z"/>
				<g>
					<path class="st6" d="M365.2,242.7c0,1.9-1.6,3.5-3.5,3.5H71.3c-1.9,0-3.5-1.6-3.5-3.5l0,0c0-1.9,1.6-3.5,3.5-3.5h290.3
						C363.6,239.2,365.2,240.7,365.2,242.7L365.2,242.7z"/>
					<path class="st16" d="M156,242.7c0,1.9-1.6,3.5-3.5,3.5H71.3c-1.9,0-3.5-1.6-3.5-3.5l0,0c0-1.9,1.6-3.5,3.5-3.5h81.1
						C154.4,239.2,156,240.7,156,242.7L156,242.7z"/>
					<path class="st5" d="M154.9,242.7c0-1.9-1.6-3.5-3.5-3.5h-8.2c-0.6,1-1,2.2-1,3.5c0,1.3,0.4,2.5,1,3.5h8.2
						C153.3,246.2,154.9,244.6,154.9,242.7z"/>
					<circle class="st6" cx="151.1" cy="242.7" r="6.8"/>
				</g>
			</g>
			<g>
				<path class="st5" d="M215.7,79c-40.4,0-73.2,32.8-73.2,73.2c0,40.4,32.8,73.2,73.2,73.2s73.2-32.8,73.2-73.2
					C288.9,111.7,256.1,79,215.7,79z M215.7,210c-31.9,0-57.8-25.9-57.8-57.8c0-31.9,25.9-57.8,57.8-57.8s57.8,25.9,57.8,57.8
					C273.5,184.1,247.6,210,215.7,210z"/>
				<path class="st17" d="M216.2,74.6c-40.4,0-73.2,32.8-73.2,73.2c0,40.4,32.8,73.2,73.2,73.2s73.2-32.8,73.2-73.2
					C289.5,107.4,256.7,74.6,216.2,74.6z M216.2,205.6c-31.9,0-57.8-25.9-57.8-57.8c0-31.9,25.9-57.8,57.8-57.8s57.8,25.9,57.8,57.8
					C274,179.8,248.2,205.6,216.2,205.6z"/>
				<circle class="st18" cx="216.2" cy="147.8" r="57.8"/>
				<polygon class="st17" points="196,117 252.8,152.5 196.4,187.8 				"/>
			</g>
		</g>
		<g>
			<defs>
				<rect id="SVGID_5_" x="-0.1" y="-29.3" width="433" height="432"/>
			</defs>
			<clipPath id="SVGID_6_">
				<use xlink:href="#SVGID_5_"  style="overflow:visible;"/>
			</clipPath>
			<g class="st19">
				<g>
					<path class="st20" d="M220.9,245.7c0,5.5-4.5,10-10,10l0,0c-5.5,0-10-4.5-10-10v-63c0-5.5,4.5-10,10-10l0,0c5.5,0,10,4.5,10,10
						V245.7z"/>
					<path class="st20" d="M236.9,272.7c0,4.4-3.6,7.9-7.9,7.9h-0.1c-4.4,0-7.9-3.6-7.9-7.9v-51.1c0-4.4,3.6-7.9,7.9-7.9h0.1
						c4.4,0,7.9,3.6,7.9,7.9V272.7z"/>
					<path class="st20" d="M251.9,278.7c0,4.4-3.6,7.9-7.9,7.9h-0.1c-4.4,0-7.9-3.6-7.9-7.9v-51.1c0-4.4,3.6-7.9,7.9-7.9h0.1
						c4.4,0,7.9,3.6,7.9,7.9V278.7z"/>
					<path class="st21" d="M185,232.3c0,0,13.7-9.5,19.3,14.3c5.6,23.8,6.6,45,6.6,45v3.3c0,0-16-16.7-20.3-21.8
						C186.2,268,196.6,252.3,185,232.3z"/>
					<path class="st20" d="M263.4,284.1c-0.3,4.4-4.2,7.8-8.6,7.5l0,0c-4.4-0.3-7.8-4.2-7.5-8.6l3.7-50.5c0.3-4.4,4.2-7.8,8.6-7.5
						l0,0c4.4,0.3,7.8,4.2,7.5,8.6L263.4,284.1z"/>
					<path class="st20" d="M201.4,219.3c0,0-5.1,76,18.1,81.1c24.5,5.3,47.5,20,46.2-47.4L201.4,219.3z"/>
					<circle class="st22" cx="211.3" cy="183.8" r="6.8"/>
					<g>
						<path class="st21" d="M221.4,217.2c0,0,0,0.4-0.1,1c-0.1,0.7-0.2,1.6-0.3,2.7c-0.1,1.1-0.2,2.4-0.3,3.8c0,0.7,0,1.4,0,2.1
							c0,0.7,0,1.5,0.1,2.2c0.1,1.5,0.2,3,0.4,4.4c0.1,1.4,0.1,2.7,0.1,3.9c0,1.1-0.1,2.1-0.1,2.7c0,0.7-0.1,1-0.1,1s-0.1-0.4-0.1-1
							c-0.1-0.7-0.2-1.6-0.3-2.7c-0.1-1.1-0.3-2.4-0.5-3.8c-0.2-1.4-0.4-2.9-0.5-4.4c0-0.8-0.1-1.5-0.1-2.3c0-0.8,0.1-1.5,0.1-2.2
							c0.1-0.7,0.2-1.4,0.3-2c0.1-0.6,0.2-1.2,0.4-1.8c0.2-1.1,0.5-2,0.7-2.6C221.3,217.6,221.4,217.2,221.4,217.2z"/>
					</g>
					<g>
						<path class="st21" d="M217.5,213.2c0,0-0.2,0-0.5-0.1c-0.3-0.1-0.8-0.1-1.4-0.2c-1.1-0.1-2.6-0.3-4.1-0.2
							c-1.5,0.1-3,0.2-4.2,0.3c-1.2,0.1-1.9,0.1-1.9,0.1s0.7-0.3,1.8-0.7c1.1-0.3,2.6-0.7,4.2-0.8c0.8,0,1.6,0,2.3,0.1
							c0.7,0.1,1.4,0.3,2,0.5c0.3,0.1,0.5,0.2,0.8,0.3c0.2,0.1,0.4,0.2,0.6,0.3C217.4,213.1,217.5,213.2,217.5,213.2z"/>
					</g>
					<g>
						<path class="st21" d="M217.5,215.9c0,0-0.2,0-0.5-0.1c-0.3-0.1-0.8-0.1-1.4-0.2c-1.1-0.1-2.6-0.3-4.1-0.2
							c-1.5,0.1-3,0.2-4.2,0.3c-1.2,0.1-1.9,0.1-1.9,0.1s0.7-0.3,1.8-0.7c1.1-0.3,2.6-0.7,4.2-0.8c0.8,0,1.6,0,2.3,0.1
							c0.7,0.1,1.4,0.3,2,0.5c0.3,0.1,0.5,0.2,0.8,0.3c0.2,0.1,0.4,0.2,0.6,0.3C217.4,215.8,217.5,215.9,217.5,215.9z"/>
					</g>
					<g>
						<path class="st21" d="M236.5,224.9c0,0,0,0.3,0.1,0.7c0,0.5,0.1,1.2,0.1,2c0,1.6-0.1,3.8-0.3,5.9c-0.2,2.1-0.5,4.3-0.8,5.9
							c-0.1,0.8-0.3,1.5-0.4,1.9c-0.1,0.5-0.2,0.7-0.2,0.7s0-0.3,0-0.7c0-0.5,0-1.2,0-2c0-1.6,0.1-3.8,0.3-5.9
							c0.2-2.1,0.5-4.3,0.7-5.9C236.3,226,236.5,224.9,236.5,224.9z"/>
					</g>
					<g>
						<path class="st21" d="M252.7,228c0,0,0,0.3,0.1,0.8c0,0.5,0.1,1.2,0.1,2c0,1.7,0,3.9-0.1,6.1c-0.1,2.2-0.4,4.4-0.6,6
							c-0.1,0.8-0.3,1.5-0.3,2c-0.1,0.5-0.2,0.7-0.2,0.7s0-0.3-0.1-0.8c0-0.5-0.1-1.2-0.1-2c0-1.7,0-3.9,0.2-6.1
							c0.1-2.2,0.4-4.4,0.6-6c0.1-0.8,0.2-1.5,0.3-2C252.6,228.3,252.7,228,252.7,228z"/>
					</g>
				</g>
				<polygon class="st4" points="283.6,487.7 185.7,487.7 207.5,290.7 261.8,290.7 				"/>
				<polygon class="st23" points="289.6,516.7 179.6,516.7 204.2,294.7 265.1,294.7 				"/>
				<polygon class="st24" points="237.1,294.9 204.2,294.9 179.6,516.5 237.1,516.5 				"/>
			</g>
		</g>
	</g>
</g>
</svg>
