<?xml version="1.0" encoding="utf-8"?>
<!-- Generator: Adobe Illustrator 19.1.0, SVG Export Plug-In . SVG Version: 6.00 Build 0)  -->
<svg version="1.1" id="Lager_1" xmlns="http://www.w3.org/2000/svg" xmlns:xlink="http://www.w3.org/1999/xlink" x="0px" y="0px"
	 viewBox="0 0 300 79.4" style="enable-background:new 0 0 300 79.4;" xml:space="preserve">
<style type="text/css">
	.st0{fill:#E85519;}
	.st1{fill:#FFFFFF;}
</style>
<g>
	<g>
		<ellipse class="st0" cx="28.4" cy="69.6" rx="7.3" ry="1.7"/>
		<path class="st1" d="M43.7,67.8c1.1,0.7,1.8,1.4,1.8,2.2c0,2.8-7.6,5-17,5c-9.4,0-17.1-2.2-17.1-5c0-0.8,0.7-1.6,1.9-2.3
			c-4.8,1.2-7.8,3-7.8,5c0,3.7,10.3,6.7,23,6.7c12.7,0,23-3,23-6.7C51.4,70.8,48.4,69,43.7,67.8z"/>
		<path class="st0" d="M56.9,28.4c0-6.6-2.2-12.6-6-17.4c2.2,3.4,3.5,7.4,3.5,11.7c0,5.6-2.2,10.6-5.6,14.5
			c-0.6,0.6-15.8,15.8-15.8,15.8S17.7,37.9,17.1,37.2c-3.5-3.8-5.7-8.9-5.7-14.5c0-11.8,9.6-21.5,21.5-21.5c2.4,0,4.7,0.4,6.9,1.1
			C36.3,0.8,32.5,0,28.4,0C12.7,0,0,12.7,0,28.4c0,8.4,3.6,15.9,9.4,21.1l19,19l19.9-19.9l0.3-0.3l0.2-0.2l0,0
			C53.8,43,56.9,36.1,56.9,28.4z"/>
		<path class="st1" d="M47.1,26.7c-0.4,0.4-10.4,10.5-10.4,10.5s-10-10.1-10.4-10.5c-2.3-2.6-3.7-6-3.7-9.7
			c0-7.9,6.3-14.3,14.1-14.3c7.8,0,14.1,6.4,14.1,14.3C50.8,20.7,49.4,24.1,47.1,26.7z"/>
	</g>
	<g>
		<g>
			<path class="st1" d="M233,56c1.1-0.4,2-1,2.7-2c0.7-1,1.1-2.1,1.1-3.4v-4.7c0-1.6-0.5-2.9-1.5-4c-1-1.1-2.2-1.6-3.6-1.6
				c-0.9,0-1.7-0.4-2.4-1.1c-0.7-0.7-1-1.6-1-2.7c0-1,0.3-1.9,1-2.7c0.7-0.7,1.5-1.1,2.4-1.1c1.4,0,2.6-0.5,3.6-1.6
				c1-1.1,1.5-2.4,1.5-4V24c0-1.3-0.4-2.4-1.1-3.4c-0.7-1-1.6-1.7-2.7-2c-1.1-0.4-2.2-0.3-3.3,0.2c-1.1,0.5-1.9,1.3-2.4,2.4
				c-0.5,0.9-1.2,1.5-2.1,1.8c-0.9,0.3-1.7,0.2-2.5-0.4c-0.8-0.6-1.3-1.4-1.6-2.3c-0.3-1-0.2-1.9,0.3-2.8c0.7-1.3,1.5-2.4,2.5-3.4
				c1-0.9,2.1-1.7,3.3-2.2c1.2-0.5,2.4-0.9,3.8-0.9c1.3-0.1,2.6,0.1,3.9,0.4c1.3,0.4,2.5,1,3.6,1.8c1.1,0.8,2,1.8,2.8,2.9
				c0.8,1.1,1.4,2.4,1.8,3.8c0.4,1.4,0.6,2.8,0.6,4.3v3.1c0,1.8-0.3,3.5-1,5.2c-0.6,1.6-1.5,3-2.7,4.2c1.1,1.2,2,2.6,2.7,4.2
				c0.6,1.6,1,3.3,1,5.2v4.7c0,1.5-0.2,2.9-0.6,4.3c-0.4,1.4-1,2.6-1.8,3.7c-0.8,1.1-1.7,2.1-2.8,2.9c-1.1,0.8-2.3,1.4-3.6,1.8
				c-1.3,0.4-2.6,0.6-3.9,0.5c-1.3-0.1-2.6-0.4-3.8-1c-1.2-0.5-2.3-1.3-3.3-2.2c-1-0.9-1.8-2.1-2.5-3.4c-0.5-0.9-0.6-1.8-0.3-2.8
				c0.3-1,0.8-1.8,1.6-2.3c0.8-0.5,1.7-0.6,2.5-0.4c0.9,0.3,1.6,0.9,2.1,1.8c0.6,1.1,1.4,1.9,2.4,2.4C230.8,56.3,231.9,56.4,233,56z
				"/>
			<path class="st1" d="M261.5,63.7c-1.7,0-3.2-0.3-4.6-1c-1.4-0.7-2.7-1.6-3.8-2.8c-1.1-1.2-1.9-2.6-2.5-4.2c-0.6-1.6-1-3.3-1-5.1
				V24c0-1.5,0.2-2.9,0.6-4.3c0.4-1.4,1-2.6,1.8-3.8c0.8-1.1,1.7-2.1,2.8-2.9c1.1-0.8,2.3-1.4,3.6-1.8c1.3-0.4,2.6-0.5,3.9-0.4
				c1.3,0.1,2.6,0.4,3.8,0.9c1.2,0.5,2.3,1.3,3.3,2.2c1,0.9,1.8,2.1,2.5,3.4c0.5,0.9,0.6,1.8,0.3,2.8c-0.3,1-0.8,1.8-1.6,2.3
				c-0.8,0.5-1.7,0.6-2.5,0.4c-0.9-0.3-1.6-0.9-2.1-1.8c-0.6-1.1-1.5-1.9-2.5-2.4c-1.1-0.5-2.1-0.6-3.2-0.2c-1.1,0.3-2.1,1-2.8,2
				c-0.7,1-1.1,2.2-1.1,3.4v6.9c1.7-0.8,3.4-1.3,5.1-1.3c1.7,0,3.2,0.3,4.6,1c1.4,0.7,2.7,1.6,3.8,2.8c1.1,1.2,1.9,2.6,2.5,4.2
				c0.6,1.6,0.9,3.3,0.9,5.1v7.8c0,1.8-0.3,3.5-0.9,5.1c-0.6,1.6-1.5,3-2.5,4.2c-1.1,1.2-2.3,2.1-3.8,2.8
				C264.7,63.4,263.1,63.7,261.5,63.7z M261.5,37.1c-1.4,0-2.6,0.5-3.6,1.6c-1,1.1-1.5,2.4-1.5,4v7.8c0,1.6,0.5,2.9,1.5,4
				c1,1.1,2.2,1.6,3.6,1.6c1.4,0,2.6-0.5,3.6-1.6c1-1.1,1.5-2.4,1.5-4v-7.8c0-1.6-0.5-2.9-1.5-4C264.1,37.7,262.9,37.1,261.5,37.1z"
				/>
			<path class="st1" d="M279.9,40.9c-0.8-0.2-1.4-0.6-1.8-1.3c-0.5-0.7-0.7-1.4-0.7-2.3V14.9c0-1,0.3-1.9,1-2.7
				c0.7-0.7,1.5-1.1,2.4-1.1h14.7c0.9,0,1.7,0.4,2.4,1.1c0.7,0.7,1,1.6,1,2.7c0,1-0.3,1.9-1,2.7c-0.7,0.7-1.5,1.1-2.4,1.1h-11.3v11
				c2.3-0.9,4.7-1,7.1-0.3c1.3,0.4,2.5,1,3.5,1.8c1.1,0.8,2,1.8,2.8,2.9c0.8,1.1,1.4,2.4,1.8,3.8c0.4,1.4,0.6,2.8,0.6,4.3v8.6
				c0,1.5-0.2,2.9-0.6,4.3c-0.4,1.4-1,2.6-1.8,3.7c-0.8,1.1-1.7,2.1-2.8,2.9c-1.1,0.8-2.3,1.4-3.5,1.8c-2.6,0.8-5.2,0.6-7.6-0.5
				c-2.5-1.1-4.4-3-5.7-5.6c-0.5-0.9-0.6-1.8-0.4-2.8c0.3-1,0.8-1.8,1.6-2.3c0.8-0.5,1.7-0.6,2.5-0.4c0.9,0.3,1.6,0.9,2.1,1.8
				c0.6,1.1,1.4,1.9,2.4,2.4c1.1,0.5,2.2,0.6,3.3,0.3c1.1-0.4,2-1,2.7-2c0.7-1,1.1-2.1,1.1-3.4V42c0-1.3-0.4-2.4-1.1-3.4
				c-0.7-1-1.6-1.7-2.7-2c-1.1-0.4-2.2-0.3-3.3,0.2c-1.1,0.5-1.9,1.3-2.4,2.4c-0.4,0.7-0.9,1.3-1.6,1.6
				C281.4,41.1,280.6,41.1,279.9,40.9z"/>
		</g>
	</g>
	<g>
		<path class="st1" d="M99.2,11.4c10.6,0.1,21.6,5.6,24.2,18.6h-13.2c-2.2-4.5-5.6-6.3-11-6.3c-8.5,0-13.1,6.6-13.1,14.6
			c0,8.7,5.1,14.4,13.1,14.4c5.4,0,8.9-1.4,11.3-6.5H99.2V34.7h24.9c0.3,5.3,0.3,10.3-1.5,15.4c-3.8,11-13.7,15.2-23.4,15.2
			c-13.4,0-26.9-8.9-27-26.9C72.3,20.4,85.8,11.4,99.2,11.4z"/>
		<path class="st1" d="M161.2,24.1c-7.8,0-11.7,0-19.4,0v7.4h17.9c0,4,0,8,0,11.9h-17.9c0,3.1,0,6.1,0,9.2c7.7,0,12.2,0,20.1,0
			c0,3.9,0,8,0,11.9c-12.3,0-21.3,0-33.5,0c0-17.6,0-35.1,0-52.6c12.2,0,20.5,0,32.8,0C161.2,16,161.2,20,161.2,24.1z"/>
		<path class="st0" d="M163.8,38.4c0-36.3,53.9-36.3,53.9,0C217.7,74.8,163.8,74.8,163.8,38.4z M204,38.4c0-18.9-26.4-18.9-26.4,0
			C177.6,57.5,204,57.5,204,38.4z"/>
	</g>
</g>
</svg>
